PathFileType	4	(X/Y/Z)	C:/Users/opensim2020/Desktop/walking_exp_matlab/subject03_walking15_straight_02.trc																																																																																																																																											
DataRate	CameraRate	NumFrames	NumMarkers	Units	OrigDataRate	OrigDataStartFrame	OrigNumFrames																																																																																																																																							
100	100	5	47	mm	100	1085	149																																																																																																																																							
Frame#	Time	LFHD			RFHD			LBHD			RBHD			C7			T10			CLAV			STRN			RBAK			LSHO			LUPA			LELB			LFRM			LWRA			LWRB			LFIN			RSHO			RUPA			RELB			RFRM			RWRA			RWRB			RFIN			LASI			RASI			LPSI			RPSI			LTHI			LKNE			LTIB			LANK			LHEE			LTOE			RTHI			RKNE			RTIB			RANK			RHEE			RTOE			*39			*40			*41			*42			*43			*44			*45			*46		
		X1	Y1	Z1	X2	Y2	Z2	X3	Y3	Z3	X4	Y4	Z4	X5	Y5	Z5	X6	Y6	Z6	X7	Y7	Z7	X8	Y8	Z8	X9	Y9	Z9	X10	Y10	Z10	X11	Y11	Z11	X12	Y12	Z12	X13	Y13	Z13	X14	Y14	Z14	X15	Y15	Z15	X16	Y16	Z16	X17	Y17	Z17	X18	Y18	Z18	X19	Y19	Z19	X20	Y20	Z20	X21	Y21	Z21	X22	Y22	Z22	X23	Y23	Z23	X24	Y24	Z24	X25	Y25	Z25	X26	Y26	Z26	X27	Y27	Z27	X28	Y28	Z28	X29	Y29	Z29	X30	Y30	Z30	X31	Y31	Z31	X32	Y32	Z32	X33	Y33	Z33	X34	Y34	Z34	X35	Y35	Z35	X36	Y36	Z36	X37	Y37	Z37	X38	Y38	Z38	X39	Y39	Z39	X40	Y40	Z40	X41	Y41	Z41	X42	Y42	Z42	X43	Y43	Z43	X44	Y44	Z44	X45	Y45	Z45	X46	Y46	Z46	X47	Y47	Z47
																																																																																																																																														
1	0	-1016.96204	1605.84424	928.69049	-1028.78918	1619.60571	1060.20972	-1145.5387	1564.32715	924.64087	-1152.2489	1577.07434	1054.3894	-1182.11804	1407.11121	990.99176	-1221.255	1096.6106	990.63037	-1058.74536	1330.93372	999.41736	-1017.13269	1164.58875	992.96954	-1239.07422	1232.12378	1080.47534	-1097.70239	1371.80017	842.4809	-1094.26404	1178.76758	768.03455	-1071.62097	1058.8573	763.57141	-994.27551	964.34283	793.42688	-924.81366	886.69263	855.39343	-938.1344	866.09198	804.57697	-876.2926	819.82556	832.55414	-1116.56128	1353.35828	1155.23804	-1147.21802	1132.56409	1226.38562	-1150.92175	1019.6012	1239.66748	-1164.76587	883.15826	1245.51221	-1156.27026	781.01227	1215.01929	-1190.03552	785.84271	1257.95618	-1192.47192	708.90637	1246.13416	-1062.13782	921.38354	881.54559	-1054.78955	942.20386	1116.17542	-1222.9281	947.83765	933.40179	-1216.90723	967.57208	1080.35327	-1132.39429	612.34857	843.46991	-1140.74731	433.34286	871.21082	-1300.29822	315.46201	877.21826	-1460.74866	186.90112	918.86188	-1503.43408	214.89659	952.40784	-1439.23059	46.0912	972.89392	-1066.3949	651.14447	1176.16162	-1013.13226	480.27835	1139.47668	-1037.93176	287.10214	1155.99268	-1047.51001	68.96259	1118.91162	-1093.58154	34.68222	1071.49023	-906.53436	31.99637	1096.17163	-1102.58374	1671.37085	965.77362	NaN	NaN	NaN	NaN	NaN	NaN	NaN	NaN	NaN	NaN	NaN	NaN	NaN	NaN	NaN	NaN	NaN	NaN	NaN	NaN	NaN
2	0.01	-1003.48218	1607.43921	929.91608	-1014.85095	1621.021	1061.46521	-1132.24646	1566.26233	926.21985	-1138.61316	1578.89539	1056.23682	-1168.7063	1408.54846	993.0072	-1207.17542	1097.97827	992.97388	-1045.06958	1332.63623	1000.40155	-1003.4696	1166.18213	993.39844	-1224.57959	1233.46216	1083.30029	-1085.63525	1373.48462	843.61914	-1083.39526	1180.12085	769.22552	-1062.0072	1059.76758	764.29932	-986.47949	963.07489	792.91553	-918.24768	883.04633	853.58069	-932.65564	863.4787	802.57556	-872.16754	814.4483	829.87964	-1101.45007	1354.79651	1156.6377	-1130.14587	1133.98682	1228.84314	-1132.71094	1020.99768	1242.37561	-1143.91882	884.34991	1247.91809	-1133.6488	782.40308	1216.96777	-1167.16101	786.46301	1260.15808	-1167.9198	709.56909	1248.15527	-1049.71497	922.51752	881.88153	-1040.68848	942.82874	1116.98096	-1209.76733	948.94366	934.97192	-1202.76697	969.61389	1082.06616	-1113.38892	612.69257	843.86182	-1113.81128	433.12753	870.97479	-1273.6189	317.58646	877.12231	-1437.35315	193.87335	920.21735	-1480.90808	220.39952	954.42493	-1413.26721	51.9509	971.54584	-1058.13525	651.36407	1176.94507	-1008.25208	479.64221	1140.82642	-1035.84656	286.94644	1156.79272	-1047.60388	69.00646	1118.96887	-1093.69446	34.74684	1071.54907	-906.55908	31.90014	1096.15967	-1087.7467	1674.57434	968.24664	NaN	NaN	NaN	NaN	NaN	NaN	NaN	NaN	NaN	NaN	NaN	NaN	NaN	NaN	NaN	NaN	NaN	NaN	NaN	NaN	NaN
3	0.02	-990.09003	1608.95117	930.95099	-1000.9115	1622.44958	1062.58643	-1118.86768	1568.00244	927.74573	-1124.72119	1580.55859	1057.70032	-1155.1521	1410.14099	994.9516	-1193.24487	1099.29639	995.17224	-1031.40198	1334.3241	1001.20782	-989.85162	1167.74316	993.70795	-1210.2002	1234.70654	1086.05591	-1073.63843	1374.96838	844.43707	-1072.6864	1181.15027	770.32318	-1053.23193	1060.52112	764.86456	-978.69971	961.49316	792.24811	-911.82123	879.07294	851.573	-927.24823	860.46973	800.44141	-868.51294	808.61407	827.01715	-1086.30408	1356.07532	1157.91467	-1112.89038	1135.21753	1231.1886	-1114.13611	1022.05817	1245.1637	-1122.79041	885.336	1250.20911	-1110.58533	783.95807	1219.06982	-1143.95129	787.00439	1262.29248	-1142.8678	710.32574	1250.22229	-1037.34241	923.69659	882.12469	-1026.34729	942.96204	1118.08508	-1196.85168	949.91138	936.55078	-1189.02502	971.55444	1083.72888	-1094.30872	614.11133	844.31238	-1086.93726	434.29092	870.68591	-1247.2052	320.79898	878.15729	-1412.65381	199.7498	922.43188	-1457.34839	223.2433	957.6889	-1382.78418	56.38181	969.84052	-1049.98853	651.53674	1177.57532	-1003.37744	479.07794	1141.92773	-1033.38843	286.87912	1157.651	-1047.625	69.02507	1119.16943	-1093.8053	34.82602	1071.75586	-906.60492	31.80479	1096.13928	-1074.03333	1676.09851	969.57959	NaN	NaN	NaN	NaN	NaN	NaN	NaN	NaN	NaN	NaN	NaN	NaN	NaN	NaN	NaN	NaN	NaN	NaN	NaN	NaN	NaN
4	0.03	-976.7663	1610.5144	931.84637	-987.00049	1623.86584	1063.62024	-1105.52222	1569.65894	929.19397	-1110.93396	1582.14783	1059.23987	-1141.43115	1411.83191	996.74493	-1179.53137	1100.68628	997.28333	-1019.10059	1334.85754	1001.53687	-976.33667	1169.16272	993.94629	-1196.03687	1235.95129	1088.68396	-1061.58093	1376.29822	844.98676	-1062.16968	1181.9353	771.20148	-1043.58691	1060.87488	765.57172	-971.03131	959.68304	791.44604	-905.69617	874.76074	848.89697	-922.31726	857.26044	798.03888	-865.40619	802.49414	823.99768	-1071.07129	1357.17102	1159.11938	-1095.31763	1136.28552	1233.3678	-1095.40918	1023.14697	1247.74426	-1101.36938	886.31458	1252.46106	-1087.31384	785.33258	1220.83447	-1120.39038	787.46674	1264.32141	-1117.22888	711.01691	1252.18323	-1024.78699	924.95142	882.48145	-1012.60901	943.23413	1118.80603	-1184.03491	950.81488	937.99097	-1175.57129	973.31165	1085.24292	-1074.63403	616.2876	844.82922	-1060.14758	436.8027	870.46649	-1220.55029	324.33432	879.42926	-1386.02649	203.19994	924.86212	-1431.67896	223.8795	960.93225	-1350.1394	59.45152	968.55164	-1041.71216	651.96436	1177.99487	-998.34326	478.63269	1142.68445	-1030.51587	286.79428	1158.29333	-1047.73425	69.13764	1119.48914	-1093.93372	34.94613	1071.99158	-906.6911	31.73684	1096.10059	-1060.42041	1677.6554	970.84271	NaN	NaN	NaN	NaN	NaN	NaN	NaN	NaN	NaN	NaN	NaN	NaN	NaN	NaN	NaN	NaN	NaN	NaN	NaN	NaN	NaN
5	0.04	-963.27368	1611.96021	932.77686	-973.15576	1625.18823	1064.53174	-1092.23328	1571.30127	930.45929	-1097.078	1583.55017	1060.57288	-1127.7019	1413.45093	998.3291	-1166.01648	1102.10938	999.1817	-1005.65045	1336.3302	1001.9798	-962.94751	1170.55237	994.02509	-1181.95056	1237.20349	1091.13672	-1049.53381	1377.47327	845.42871	-1051.77295	1182.63037	771.95221	-1033.85596	1061.04626	766.22363	-963.50085	957.6264	790.60986	-900.1059	870.0451	846.14374	-917.4953	853.76801	795.47351	-862.83038	796.23901	820.74066	-1055.91028	1358.24683	1160.09436	-1077.49475	1137.26489	1235.30603	-1076.40747	1024.29858	1250.01978	-1079.50061	887.2475	1254.56201	-1063.77905	786.78632	1222.56311	-1096.44385	788.00714	1266.26709	-1091.05481	711.7832	1254.26379	-1012.13049	926.31055	883.12842	-999.07727	943.55981	1119.65112	-1171.1615	951.8186	939.25995	-1162.3479	974.90216	1086.5741	-1053.96509	618.83319	845.36401	-1033.60547	440.06754	870.21472	-1193.29871	327.06659	880.5946	-1357.60669	203.84702	927.00488	-1404.47461	222.38853	964.05066	-1315.71033	61.29174	967.67896	-1032.60059	652.27856	1178.92749	-993.30676	478.24463	1143.3053	-1027.48682	286.73624	1158.77551	-1047.70007	69.15472	1119.58911	-1094.04175	35.09033	1072.14343	-906.77753	31.66675	1096.09436	-1046.80054	1679.297	972.06995	NaN	NaN	NaN	NaN	NaN	NaN	NaN	NaN	NaN	NaN	NaN	NaN	NaN	NaN	NaN	NaN	NaN	NaN	NaN	NaN	NaN
